<?xml version="1.0" encoding="UTF-8" standalone="no"?>
<!-- Created with Inkscape (http://www.inkscape.org/) -->

<svg
   xmlns:dc="http://purl.org/dc/elements/1.1/"
   xmlns:cc="http://creativecommons.org/ns#"
   xmlns:rdf="http://www.w3.org/1999/02/22-rdf-syntax-ns#"
   xmlns:svg="http://www.w3.org/2000/svg"
   xmlns="http://www.w3.org/2000/svg"
   xmlns:sodipodi="http://sodipodi.sourceforge.net/DTD/sodipodi-0.dtd"
   xmlns:inkscape="http://www.inkscape.org/namespaces/inkscape"
   width="628.4776"
   height="189.02751"
   id="svg4919"
   version="1.1"
   inkscape:version="0.48.3.1 r9886"
   sodipodi:docname="MasterDevelopmentTopic.svg">
  <defs
     id="defs4921">
    <marker
       inkscape:stockid="Arrow1Lend"
       orient="auto"
       refY="0"
       refX="0"
       id="Arrow1Lend"
       style="overflow:visible">
      <path
         id="path3850"
         d="M 0,0 5,-5 -12.5,0 5,5 0,0 z"
         style="fill-rule:evenodd;stroke:#000000;stroke-width:1pt"
         transform="matrix(-0.8,0,0,-0.8,-10,0)"
         inkscape:connector-curvature="0" />
    </marker>
    <marker
       inkscape:stockid="Arrow1Lend"
       orient="auto"
       refY="0"
       refX="0"
       id="Arrow1Lend-5"
       style="overflow:visible">
      <path
         inkscape:connector-curvature="0"
         id="path3850-0"
         d="M 0,0 5,-5 -12.5,0 5,5 0,0 z"
         style="fill-rule:evenodd;stroke:#000000;stroke-width:1pt"
         transform="matrix(-0.8,0,0,-0.8,-10,0)" />
    </marker>
    <marker
       inkscape:stockid="Arrow1Lend"
       orient="auto"
       refY="0"
       refX="0"
       id="Arrow1Lend-8"
       style="overflow:visible">
      <path
         id="path3850-06"
         d="M 0,0 5,-5 -12.5,0 5,5 0,0 z"
         style="fill-rule:evenodd;stroke:#000000;stroke-width:1pt"
         transform="matrix(-0.8,0,0,-0.8,-10,0)"
         inkscape:connector-curvature="0" />
    </marker>
    <marker
       inkscape:stockid="Arrow1Lend"
       orient="auto"
       refY="0"
       refX="0"
       id="Arrow1Lend-3"
       style="overflow:visible">
      <path
         id="path3850-6"
         d="M 0,0 5,-5 -12.5,0 5,5 0,0 z"
         style="fill-rule:evenodd;stroke:#000000;stroke-width:1pt"
         transform="matrix(-0.8,0,0,-0.8,-10,0)"
         inkscape:connector-curvature="0" />
    </marker>
    <marker
       inkscape:stockid="Arrow1Lend"
       orient="auto"
       refY="0"
       refX="0"
       id="marker6004"
       style="overflow:visible">
      <path
         id="path6006"
         d="M 0,0 5,-5 -12.5,0 5,5 0,0 z"
         style="fill-rule:evenodd;stroke:#000000;stroke-width:1pt"
         transform="matrix(-0.8,0,0,-0.8,-10,0)"
         inkscape:connector-curvature="0" />
    </marker>
    <marker
       inkscape:stockid="Arrow1Lend"
       orient="auto"
       refY="0"
       refX="0"
       id="Arrow1Lend-7"
       style="overflow:visible">
      <path
         id="path3850-2"
         d="M 0,0 5,-5 -12.5,0 5,5 0,0 z"
         style="fill-rule:evenodd;stroke:#000000;stroke-width:1pt"
         transform="matrix(-0.8,0,0,-0.8,-10,0)"
         inkscape:connector-curvature="0" />
    </marker>
    <marker
       inkscape:stockid="Arrow1Lend"
       orient="auto"
       refY="0"
       refX="0"
       id="marker6066"
       style="overflow:visible">
      <path
         id="path6068"
         d="M 0,0 5,-5 -12.5,0 5,5 0,0 z"
         style="fill-rule:evenodd;stroke:#000000;stroke-width:1pt"
         transform="matrix(-0.8,0,0,-0.8,-10,0)"
         inkscape:connector-curvature="0" />
    </marker>
  </defs>
  <sodipodi:namedview
     id="base"
     pagecolor="#ffffff"
     bordercolor="#666666"
     borderopacity="1.0"
     inkscape:pageopacity="0.0"
     inkscape:pageshadow="2"
     inkscape:zoom="1.4"
     inkscape:cx="251.00968"
     inkscape:cy="55.861765"
     inkscape:document-units="px"
     inkscape:current-layer="layer1"
     showgrid="false"
     fit-margin-top="0"
     fit-margin-left="0"
     fit-margin-right="0"
     fit-margin-bottom="0"
     inkscape:window-width="1920"
     inkscape:window-height="1021"
     inkscape:window-x="0"
     inkscape:window-y="27"
     inkscape:window-maximized="1" />
  <metadata
     id="metadata4924">
    <rdf:RDF>
      <cc:Work
         rdf:about="">
        <dc:format>image/svg+xml</dc:format>
        <dc:type
           rdf:resource="http://purl.org/dc/dcmitype/StillImage" />
        <dc:title></dc:title>
      </cc:Work>
    </rdf:RDF>
  </metadata>
  <g
     inkscape:label="Layer 1"
     inkscape:groupmode="layer"
     id="layer1"
     transform="translate(-24.864548,-316.40125)">
    <path
       sodipodi:type="arc"
       style="fill:#000000;fill-opacity:1;stroke:#000000;stroke-width:2.9920001;stroke-linejoin:miter;stroke-miterlimit:4;stroke-opacity:1;stroke-dasharray:none"
       id="path4927"
       sodipodi:cx="41.42857"
       sodipodi:cy="372.36218"
       sodipodi:rx="15.714286"
       sodipodi:ry="15.714286"
       d="m 57.142856,372.36218 a 15.714286,15.714286 0 1 1 -31.428572,0 15.714286,15.714286 0 1 1 31.428572,0 z"
       transform="matrix(0.56818182,0,0,0.56818182,11.103895,259.43561)" />
    <path
       style="fill:none;stroke:#000000;stroke-width:1px;stroke-linecap:butt;stroke-linejoin:miter;stroke-opacity:1"
       d="m 29.821402,471.00504 618.571428,0"
       id="path4929"
       inkscape:connector-curvature="0" />
    <path
       sodipodi:type="arc"
       style="fill:#000000;fill-opacity:1;stroke:#000000;stroke-width:2.9920001;stroke-linejoin:miter;stroke-miterlimit:4;stroke-opacity:1;stroke-dasharray:none"
       id="path4927-7"
       sodipodi:cx="41.42857"
       sodipodi:cy="372.36218"
       sodipodi:rx="15.714286"
       sodipodi:ry="15.714286"
       d="m 57.142856,372.36218 a 15.714286,15.714286 0 1 1 -31.428572,0 15.714286,15.714286 0 1 1 31.428572,0 z"
       transform="matrix(0.56818182,0,0,0.56818182,57.944553,259.43561)" />
    <path
       sodipodi:type="arc"
       style="fill:#000000;fill-opacity:1;stroke:#000000;stroke-width:2.9920001;stroke-linejoin:miter;stroke-miterlimit:4;stroke-opacity:1;stroke-dasharray:none"
       id="path4927-2"
       sodipodi:cx="41.42857"
       sodipodi:cy="372.36218"
       sodipodi:rx="15.714286"
       sodipodi:ry="15.714286"
       d="m 57.142856,372.36218 a 15.714286,15.714286 0 1 1 -31.428572,0 15.714286,15.714286 0 1 1 31.428572,0 z"
       transform="matrix(0.56818182,0,0,0.56818182,338.98847,259.43561)" />
    <path
       sodipodi:type="arc"
       style="fill:#000000;fill-opacity:1;stroke:#000000;stroke-width:2.9920001;stroke-linejoin:miter;stroke-miterlimit:4;stroke-opacity:1;stroke-dasharray:none"
       id="path4927-13"
       sodipodi:cx="41.42857"
       sodipodi:cy="372.36218"
       sodipodi:rx="15.714286"
       sodipodi:ry="15.714286"
       d="m 57.142856,372.36218 a 15.714286,15.714286 0 1 1 -31.428572,0 15.714286,15.714286 0 1 1 31.428572,0 z"
       transform="matrix(0.56818182,0,0,0.56818182,479.51043,259.43561)" />
    <path
       sodipodi:type="arc"
       style="fill:#000000;fill-opacity:1;stroke:#000000;stroke-width:2.9920001;stroke-linejoin:miter;stroke-miterlimit:4;stroke-opacity:1;stroke-dasharray:none"
       id="path4927-42"
       sodipodi:cx="41.42857"
       sodipodi:cy="372.36218"
       sodipodi:rx="15.714286"
       sodipodi:ry="15.714286"
       d="m 57.142856,372.36218 a 15.714286,15.714286 0 1 1 -31.428572,0 15.714286,15.714286 0 1 1 31.428572,0 z"
       transform="matrix(0.56818182,0,0,-0.56818182,83.64512,613.92445)" />
    <path
       sodipodi:type="arc"
       style="fill:#000000;fill-opacity:1;stroke:#000000;stroke-width:2.9920001;stroke-linejoin:miter;stroke-miterlimit:4;stroke-opacity:1;stroke-dasharray:none"
       id="path4927-5-9"
       sodipodi:cx="41.42857"
       sodipodi:cy="372.36218"
       sodipodi:rx="15.714286"
       sodipodi:ry="15.714286"
       d="m 57.142856,372.36218 a 15.714286,15.714286 0 1 1 -31.428572,0 15.714286,15.714286 0 1 1 31.428572,0 z"
       transform="matrix(0.56818182,0,0,-0.56818182,224.16709,613.92445)" />
    <path
       sodipodi:type="arc"
       style="fill:#000000;fill-opacity:1;stroke:#000000;stroke-width:2.9920001;stroke-linejoin:miter;stroke-miterlimit:4;stroke-opacity:1;stroke-dasharray:none"
       id="path4927-48-6"
       sodipodi:cx="41.42857"
       sodipodi:cy="372.36218"
       sodipodi:rx="15.714286"
       sodipodi:ry="15.714286"
       d="m 57.142856,372.36218 a 15.714286,15.714286 0 1 1 -31.428572,0 15.714286,15.714286 0 1 1 31.428572,0 z"
       transform="matrix(0.56818182,0,0,-0.56818182,317.8484,613.92445)" />
    <path
       style="fill:none;stroke:#000000;stroke-width:1px;stroke-linecap:butt;stroke-linejoin:miter;stroke-opacity:1"
       d="m 106.42857,402.35503 236.42857,0"
       id="path5066"
       inkscape:connector-curvature="0" />
    <path
       style="fill:none;stroke:#000000;stroke-width:1px;stroke-linecap:butt;stroke-linejoin:miter;stroke-opacity:1;marker-end:url(#Arrow1Lend)"
       d="m 82.14286,463.7836 23.57143,-58.57143"
       id="path5068"
       inkscape:connector-curvature="0" />
    <path
       style="fill:none;stroke:#000000;stroke-width:1px;stroke-linecap:butt;stroke-linejoin:miter;stroke-opacity:1;marker-end:url(#Arrow1Lend)"
       d="m 342.5,410.92645 23.57143,58.57143"
       id="path5068-3"
       inkscape:connector-curvature="0" />
    <path
       sodipodi:type="arc"
       style="fill:#000000;fill-opacity:1;stroke:#000000;stroke-width:2.9920001;stroke-linejoin:miter;stroke-miterlimit:4;stroke-opacity:1;stroke-dasharray:none"
       id="path4927-7-3-3"
       sodipodi:cx="41.42857"
       sodipodi:cy="372.36218"
       sodipodi:rx="15.714286"
       sodipodi:ry="15.714286"
       d="m 57.142856,372.36218 a 15.714286,15.714286 0 1 1 -31.428572,0 15.714286,15.714286 0 1 1 31.428572,0 z"
       transform="matrix(0.56818182,0,0,-0.56818182,364.63602,614.14105)" />
    <path
       sodipodi:type="arc"
       style="fill:#000000;fill-opacity:1;stroke:#000000;stroke-width:2.9920001;stroke-linejoin:miter;stroke-miterlimit:4;stroke-opacity:1;stroke-dasharray:none"
       id="path4927-3-0-4"
       sodipodi:cx="41.42857"
       sodipodi:cy="372.36218"
       sodipodi:rx="15.714286"
       sodipodi:ry="15.714286"
       d="m 57.142856,372.36218 a 15.714286,15.714286 0 1 1 -31.428572,0 15.714286,15.714286 0 1 1 31.428572,0 z"
       transform="matrix(0.56818182,0,0,-0.56818182,411.47668,614.14105)" />
    <path
       sodipodi:type="arc"
       style="fill:#000000;fill-opacity:1;stroke:#000000;stroke-width:2.9920001;stroke-linejoin:miter;stroke-miterlimit:4;stroke-opacity:1;stroke-dasharray:none"
       id="path4927-5-9-2"
       sodipodi:cx="41.42857"
       sodipodi:cy="372.36218"
       sodipodi:rx="15.714286"
       sodipodi:ry="15.714286"
       d="m 57.142856,372.36218 a 15.714286,15.714286 0 1 1 -31.428572,0 15.714286,15.714286 0 1 1 31.428572,0 z"
       transform="matrix(0.56818182,0,0,-0.56818182,458.31734,614.14105)" />
    <path
       style="fill:none;stroke:#000000;stroke-width:0.99999994px;stroke-linecap:butt;stroke-linejoin:miter;stroke-opacity:1"
       d="m 340.57882,402.57163 135.92638,0"
       id="path5066-4"
       inkscape:connector-curvature="0" />
    <path
       style="fill:none;stroke:#000000;stroke-width:1px;stroke-linecap:butt;stroke-linejoin:miter;stroke-opacity:1;marker-end:url(#Arrow1Lend)"
       d="m 480.22169,402.57162 23.57143,58.57143"
       id="path5068-3-0"
       inkscape:connector-curvature="0" />
    <path
       sodipodi:type="arc"
       style="fill:#000000;fill-opacity:1;stroke:#000000;stroke-width:2.9920001;stroke-linejoin:miter;stroke-miterlimit:4;stroke-opacity:1;stroke-dasharray:none"
       id="path4927-42-7"
       sodipodi:cx="41.42857"
       sodipodi:cy="372.36218"
       sodipodi:rx="15.714286"
       sodipodi:ry="15.714286"
       d="m 57.142856,372.36218 a 15.714286,15.714286 0 1 1 -31.428572,0 15.714286,15.714286 0 1 1 31.428572,0 z"
       transform="matrix(0.56818182,0,0,-0.56818182,107.21848,546.24461)" />
    <path
       sodipodi:type="arc"
       style="fill:#000000;fill-opacity:1;stroke:#000000;stroke-width:2.9920001;stroke-linejoin:miter;stroke-miterlimit:4;stroke-opacity:1;stroke-dasharray:none"
       id="path4927-7-3-4"
       sodipodi:cx="41.42857"
       sodipodi:cy="372.36218"
       sodipodi:rx="15.714286"
       sodipodi:ry="15.714286"
       d="m 57.142856,372.36218 a 15.714286,15.714286 0 1 1 -31.428572,0 15.714286,15.714286 0 1 1 31.428572,0 z"
       transform="matrix(0.56818182,0,0,-0.56818182,154.05914,546.24461)" />
    <path
       sodipodi:type="arc"
       style="fill:#000000;fill-opacity:1;stroke:#000000;stroke-width:2.9920001;stroke-linejoin:miter;stroke-miterlimit:4;stroke-opacity:1;stroke-dasharray:none"
       id="path4927-3-0-5"
       sodipodi:cx="41.42857"
       sodipodi:cy="372.36218"
       sodipodi:rx="15.714286"
       sodipodi:ry="15.714286"
       d="m 57.142856,372.36218 a 15.714286,15.714286 0 1 1 -31.428572,0 15.714286,15.714286 0 1 1 31.428572,0 z"
       transform="matrix(0.56818182,0,0,-0.56818182,200.8998,546.24461)" />
    <path
       style="fill:none;stroke:#000000;stroke-width:1px;stroke-linecap:butt;stroke-linejoin:miter;stroke-opacity:1"
       d="m 130.00193,334.67519 91.73393,0"
       id="path5066-8"
       inkscape:connector-curvature="0" />
    <path
       style="fill:none;stroke:#000000;stroke-width:1px;stroke-linecap:butt;stroke-linejoin:miter;stroke-opacity:1;marker-end:url(#Arrow1Lend)"
       d="m 105.71622,396.10376 23.57143,-58.57143"
       id="path5068-32"
       inkscape:connector-curvature="0" />
    <path
       style="fill:none;stroke:#000000;stroke-width:1px;stroke-linecap:butt;stroke-linejoin:miter;stroke-opacity:1;marker-end:url(#Arrow1Lend)"
       d="m 225.35909,337.53232 23.57143,58.57143"
       id="path5068-3-2"
       inkscape:connector-curvature="0" />
    <path
       sodipodi:type="arc"
       style="fill:#000000;fill-opacity:1;stroke:#000000;stroke-width:2.9920001;stroke-linejoin:miter;stroke-miterlimit:4;stroke-opacity:1;stroke-dasharray:none"
       id="path4927-42-7-2"
       sodipodi:cx="41.42857"
       sodipodi:cy="372.36218"
       sodipodi:rx="15.714286"
       sodipodi:ry="15.714286"
       d="m 57.142856,372.36218 a 15.714286,15.714286 0 1 1 -31.428572,0 15.714286,15.714286 0 1 1 31.428572,0 z"
       transform="matrix(0.56818182,0,0,-0.56818182,248.20939,546.01541)" />
    <path
       sodipodi:type="arc"
       style="fill:#000000;fill-opacity:1;stroke:#000000;stroke-width:2.9920001;stroke-linejoin:miter;stroke-miterlimit:4;stroke-opacity:1;stroke-dasharray:none"
       id="path4927-7-3-4-0"
       sodipodi:cx="41.42857"
       sodipodi:cy="372.36218"
       sodipodi:rx="15.714286"
       sodipodi:ry="15.714286"
       d="m 57.142856,372.36218 a 15.714286,15.714286 0 1 1 -31.428572,0 15.714286,15.714286 0 1 1 31.428572,0 z"
       transform="matrix(0.56818182,0,0,-0.56818182,295.05005,546.01541)" />
    <path
       style="fill:none;stroke:#000000;stroke-width:1px;stroke-linecap:butt;stroke-linejoin:miter;stroke-opacity:1"
       d="m 270.99284,334.44599 39.87222,0"
       id="path5066-8-2"
       inkscape:connector-curvature="0" />
    <path
       style="fill:none;stroke:#000000;stroke-width:1px;stroke-linecap:butt;stroke-linejoin:miter;stroke-opacity:1;marker-end:url(#Arrow1Lend)"
       d="m 246.70713,395.87456 23.57143,-58.57143"
       id="path5068-32-0"
       inkscape:connector-curvature="0" />
    <path
       style="fill:none;stroke:#000000;stroke-width:1px;stroke-linecap:butt;stroke-linejoin:miter;stroke-opacity:1;marker-end:url(#Arrow1Lend)"
       d="m 319.92143,338.73169 23.57143,58.57143"
       id="path5068-3-2-8"
       inkscape:connector-curvature="0" />
    <text
       xml:space="preserve"
       style="font-size:16px;font-style:normal;font-variant:normal;font-weight:normal;font-stretch:normal;line-height:125%;letter-spacing:0px;word-spacing:0px;fill:#000000;fill-opacity:1;stroke:none;font-family:Liberation Sans;-inkscape-font-specification:Liberation Sans"
       x="552.33105"
       y="461.85733"
       id="text6107"
       sodipodi:linespacing="125%"><tspan
         sodipodi:role="line"
         id="tspan6109"
         x="552.33105"
         y="461.85733">master</tspan></text>
    <text
       xml:space="preserve"
       style="font-size:16px;font-style:normal;font-variant:normal;font-weight:normal;font-stretch:normal;line-height:125%;letter-spacing:0px;word-spacing:0px;fill:#000000;fill-opacity:1;stroke:none;font-family:Liberation Sans;-inkscape-font-specification:Liberation Sans"
       x="552.72168"
       y="398.52167"
       id="text6111"
       sodipodi:linespacing="125%"><tspan
         sodipodi:role="line"
         id="tspan6113"
         x="552.72168"
         y="398.52167">development</tspan></text>
    <text
       xml:space="preserve"
       style="font-size:16px;font-style:normal;font-variant:normal;font-weight:normal;font-stretch:normal;line-height:125%;letter-spacing:0px;word-spacing:0px;fill:#000000;fill-opacity:1;stroke:none;font-family:Liberation Sans;-inkscape-font-specification:Liberation Sans"
       x="553.15137"
       y="336.14304"
       id="text6115"
       sodipodi:linespacing="125%"><tspan
         sodipodi:role="line"
         id="tspan6117"
         x="553.15137"
         y="336.14304">topic</tspan></text>
  </g>
</svg>
