<?xml version="1.0" encoding="UTF-8" standalone="no"?>
<!-- Created with Inkscape (http://www.inkscape.org/) -->

<svg
   xmlns:dc="http://purl.org/dc/elements/1.1/"
   xmlns:cc="http://creativecommons.org/ns#"
   xmlns:rdf="http://www.w3.org/1999/02/22-rdf-syntax-ns#"
   xmlns:svg="http://www.w3.org/2000/svg"
   xmlns="http://www.w3.org/2000/svg"
   xmlns:sodipodi="http://sodipodi.sourceforge.net/DTD/sodipodi-0.dtd"
   xmlns:inkscape="http://www.inkscape.org/namespaces/inkscape"
   width="628.4776"
   height="189.02751"
   id="svg4919"
   version="1.1"
   inkscape:version="0.48.3.1 r9886"
   sodipodi:docname="New document 25">
  <defs
     id="defs4921">
    <marker
       inkscape:stockid="Arrow1Lend"
       orient="auto"
       refY="0"
       refX="0"
       id="Arrow1Lend"
       style="overflow:visible">
      <path
         id="path3850"
         d="M 0,0 5,-5 -12.5,0 5,5 0,0 z"
         style="fill-rule:evenodd;stroke:#000000;stroke-width:1pt"
         transform="matrix(-0.8,0,0,-0.8,-10,0)"
         inkscape:connector-curvature="0" />
    </marker>
    <marker
       inkscape:stockid="Arrow1Lend"
       orient="auto"
       refY="0"
       refX="0"
       id="Arrow1Lend-5"
       style="overflow:visible">
      <path
         inkscape:connector-curvature="0"
         id="path3850-0"
         d="M 0,0 5,-5 -12.5,0 5,5 0,0 z"
         style="fill-rule:evenodd;stroke:#000000;stroke-width:1pt"
         transform="matrix(-0.8,0,0,-0.8,-10,0)" />
    </marker>
  </defs>
  <sodipodi:namedview
     id="base"
     pagecolor="#ffffff"
     bordercolor="#666666"
     borderopacity="1.0"
     inkscape:pageopacity="0.0"
     inkscape:pageshadow="2"
     inkscape:zoom="1.4"
     inkscape:cx="251.00968"
     inkscape:cy="55.861765"
     inkscape:document-units="px"
     inkscape:current-layer="layer1"
     showgrid="false"
     fit-margin-top="0"
     fit-margin-left="0"
     fit-margin-right="0"
     fit-margin-bottom="0"
     inkscape:window-width="1920"
     inkscape:window-height="1021"
     inkscape:window-x="0"
     inkscape:window-y="27"
     inkscape:window-maximized="1" />
  <metadata
     id="metadata4924">
    <rdf:RDF>
      <cc:Work
         rdf:about="">
        <dc:format>image/svg+xml</dc:format>
        <dc:type
           rdf:resource="http://purl.org/dc/dcmitype/StillImage" />
        <dc:title></dc:title>
      </cc:Work>
    </rdf:RDF>
  </metadata>
  <g
     inkscape:label="Layer 1"
     inkscape:groupmode="layer"
     id="layer1"
     transform="translate(-24.864548,-316.40125)">
    <path
       sodipodi:type="arc"
       style="fill:#000000;fill-opacity:1;stroke:#000000;stroke-width:2.9920001;stroke-linejoin:miter;stroke-miterlimit:4;stroke-opacity:1;stroke-dasharray:none"
       id="path4927"
       sodipodi:cx="41.42857"
       sodipodi:cy="372.36218"
       sodipodi:rx="15.714286"
       sodipodi:ry="15.714286"
       d="m 57.142856,372.36218 c 0,8.67876 -7.035526,15.71429 -15.714286,15.71429 -8.678761,0 -15.714286,-7.03553 -15.714286,-15.71429 0,-8.67876 7.035525,-15.71428 15.714286,-15.71428 8.67876,0 15.714286,7.03552 15.714286,15.71428 z"
       transform="matrix(0.56818182,0,0,0.56818182,11.103895,165.43561)" />
    <path
       style="fill:none;stroke:#000000;stroke-width:1px;stroke-linecap:butt;stroke-linejoin:miter;stroke-opacity:1"
       d="m 29.821402,377.00504 618.571428,0"
       id="path4929"
       inkscape:connector-curvature="0" />
    <path
       sodipodi:type="arc"
       style="fill:#000000;fill-opacity:1;stroke:#000000;stroke-width:2.9920001;stroke-linejoin:miter;stroke-miterlimit:4;stroke-opacity:1;stroke-dasharray:none"
       id="path4927-7"
       sodipodi:cx="41.42857"
       sodipodi:cy="372.36218"
       sodipodi:rx="15.714286"
       sodipodi:ry="15.714286"
       d="m 57.142856,372.36218 c 0,8.67876 -7.035526,15.71429 -15.714286,15.71429 -8.678761,0 -15.714286,-7.03553 -15.714286,-15.71429 0,-8.67876 7.035525,-15.71428 15.714286,-15.71428 8.67876,0 15.714286,7.03552 15.714286,15.71428 z"
       transform="matrix(0.56818182,0,0,0.56818182,57.944553,165.43561)" />
    <path
       sodipodi:type="arc"
       style="fill:#000000;fill-opacity:1;stroke:#000000;stroke-width:2.9920001;stroke-linejoin:miter;stroke-miterlimit:4;stroke-opacity:1;stroke-dasharray:none"
       id="path4927-3"
       sodipodi:cx="41.42857"
       sodipodi:cy="372.36218"
       sodipodi:rx="15.714286"
       sodipodi:ry="15.714286"
       d="m 57.142856,372.36218 c 0,8.67876 -7.035526,15.71429 -15.714286,15.71429 -8.678761,0 -15.714286,-7.03553 -15.714286,-15.71429 0,-8.67876 7.035525,-15.71428 15.714286,-15.71428 8.67876,0 15.714286,7.03552 15.714286,15.71428 z"
       transform="matrix(0.56818182,0,0,0.56818182,104.78521,165.43561)" />
    <path
       sodipodi:type="arc"
       style="fill:#000000;fill-opacity:1;stroke:#000000;stroke-width:2.9920001;stroke-linejoin:miter;stroke-miterlimit:4;stroke-opacity:1;stroke-dasharray:none"
       id="path4927-5"
       sodipodi:cx="41.42857"
       sodipodi:cy="372.36218"
       sodipodi:rx="15.714286"
       sodipodi:ry="15.714286"
       d="m 57.142856,372.36218 c 0,8.67876 -7.035526,15.71429 -15.714286,15.71429 -8.678761,0 -15.714286,-7.03553 -15.714286,-15.71429 0,-8.67876 7.035525,-15.71428 15.714286,-15.71428 8.67876,0 15.714286,7.03552 15.714286,15.71428 z"
       transform="matrix(0.56818182,0,0,0.56818182,151.62586,165.43561)" />
    <path
       sodipodi:type="arc"
       style="fill:#000000;fill-opacity:1;stroke:#000000;stroke-width:2.9920001;stroke-linejoin:miter;stroke-miterlimit:4;stroke-opacity:1;stroke-dasharray:none"
       id="path4927-4"
       sodipodi:cx="41.42857"
       sodipodi:cy="372.36218"
       sodipodi:rx="15.714286"
       sodipodi:ry="15.714286"
       d="m 57.142856,372.36218 c 0,8.67876 -7.035526,15.71429 -15.714286,15.71429 -8.678761,0 -15.714286,-7.03553 -15.714286,-15.71429 0,-8.67876 7.035525,-15.71428 15.714286,-15.71428 8.67876,0 15.714286,7.03552 15.714286,15.71428 z"
       transform="matrix(0.56818182,0,0,0.56818182,198.46652,165.43561)" />
    <path
       sodipodi:type="arc"
       style="fill:#000000;fill-opacity:1;stroke:#000000;stroke-width:2.9920001;stroke-linejoin:miter;stroke-miterlimit:4;stroke-opacity:1;stroke-dasharray:none"
       id="path4927-48"
       sodipodi:cx="41.42857"
       sodipodi:cy="372.36218"
       sodipodi:rx="15.714286"
       sodipodi:ry="15.714286"
       d="m 57.142856,372.36218 c 0,8.67876 -7.035526,15.71429 -15.714286,15.71429 -8.678761,0 -15.714286,-7.03553 -15.714286,-15.71429 0,-8.67876 7.035525,-15.71428 15.714286,-15.71428 8.67876,0 15.714286,7.03552 15.714286,15.71428 z"
       transform="matrix(0.56818182,0,0,0.56818182,245.30717,165.43561)" />
    <path
       sodipodi:type="arc"
       style="fill:#000000;fill-opacity:1;stroke:#000000;stroke-width:2.9920001;stroke-linejoin:miter;stroke-miterlimit:4;stroke-opacity:1;stroke-dasharray:none"
       id="path4927-1"
       sodipodi:cx="41.42857"
       sodipodi:cy="372.36218"
       sodipodi:rx="15.714286"
       sodipodi:ry="15.714286"
       d="m 57.142856,372.36218 c 0,8.67876 -7.035526,15.71429 -15.714286,15.71429 -8.678761,0 -15.714286,-7.03553 -15.714286,-15.71429 0,-8.67876 7.035525,-15.71428 15.714286,-15.71428 8.67876,0 15.714286,7.03552 15.714286,15.71428 z"
       transform="matrix(0.56818182,0,0,0.56818182,292.14783,165.43561)" />
    <path
       sodipodi:type="arc"
       style="fill:#000000;fill-opacity:1;stroke:#000000;stroke-width:2.9920001;stroke-linejoin:miter;stroke-miterlimit:4;stroke-opacity:1;stroke-dasharray:none"
       id="path4927-2"
       sodipodi:cx="41.42857"
       sodipodi:cy="372.36218"
       sodipodi:rx="15.714286"
       sodipodi:ry="15.714286"
       d="m 57.142856,372.36218 c 0,8.67876 -7.035526,15.71429 -15.714286,15.71429 -8.678761,0 -15.714286,-7.03553 -15.714286,-15.71429 0,-8.67876 7.035525,-15.71428 15.714286,-15.71428 8.67876,0 15.714286,7.03552 15.714286,15.71428 z"
       transform="matrix(0.56818182,0,0,0.56818182,338.98847,165.43561)" />
    <path
       sodipodi:type="arc"
       style="fill:#000000;fill-opacity:1;stroke:#000000;stroke-width:2.9920001;stroke-linejoin:miter;stroke-miterlimit:4;stroke-opacity:1;stroke-dasharray:none"
       id="path4927-14"
       sodipodi:cx="41.42857"
       sodipodi:cy="372.36218"
       sodipodi:rx="15.714286"
       sodipodi:ry="15.714286"
       d="m 57.142856,372.36218 c 0,8.67876 -7.035526,15.71429 -15.714286,15.71429 -8.678761,0 -15.714286,-7.03553 -15.714286,-15.71429 0,-8.67876 7.035525,-15.71428 15.714286,-15.71428 8.67876,0 15.714286,7.03552 15.714286,15.71428 z"
       transform="matrix(0.56818182,0,0,0.56818182,385.82914,165.43561)" />
    <path
       sodipodi:type="arc"
       style="fill:#000000;fill-opacity:1;stroke:#000000;stroke-width:2.9920001;stroke-linejoin:miter;stroke-miterlimit:4;stroke-opacity:1;stroke-dasharray:none"
       id="path4927-23"
       sodipodi:cx="41.42857"
       sodipodi:cy="372.36218"
       sodipodi:rx="15.714286"
       sodipodi:ry="15.714286"
       d="m 57.142856,372.36218 c 0,8.67876 -7.035526,15.71429 -15.714286,15.71429 -8.678761,0 -15.714286,-7.03553 -15.714286,-15.71429 0,-8.67876 7.035525,-15.71428 15.714286,-15.71428 8.67876,0 15.714286,7.03552 15.714286,15.71428 z"
       transform="matrix(0.56818182,0,0,0.56818182,432.66981,165.43561)" />
    <path
       sodipodi:type="arc"
       style="fill:#000000;fill-opacity:1;stroke:#000000;stroke-width:2.9920001;stroke-linejoin:miter;stroke-miterlimit:4;stroke-opacity:1;stroke-dasharray:none"
       id="path4927-13"
       sodipodi:cx="41.42857"
       sodipodi:cy="372.36218"
       sodipodi:rx="15.714286"
       sodipodi:ry="15.714286"
       d="m 57.142856,372.36218 c 0,8.67876 -7.035526,15.71429 -15.714286,15.71429 -8.678761,0 -15.714286,-7.03553 -15.714286,-15.71429 0,-8.67876 7.035525,-15.71428 15.714286,-15.71428 8.67876,0 15.714286,7.03552 15.714286,15.71428 z"
       transform="matrix(0.56818182,0,0,0.56818182,479.51043,165.43561)" />
    <path
       sodipodi:type="arc"
       style="fill:#000000;fill-opacity:1;stroke:#000000;stroke-width:2.9920001;stroke-linejoin:miter;stroke-miterlimit:4;stroke-opacity:1;stroke-dasharray:none"
       id="path4927-72"
       sodipodi:cx="41.42857"
       sodipodi:cy="372.36218"
       sodipodi:rx="15.714286"
       sodipodi:ry="15.714286"
       d="m 57.142856,372.36218 c 0,8.67876 -7.035526,15.71429 -15.714286,15.71429 -8.678761,0 -15.714286,-7.03553 -15.714286,-15.71429 0,-8.67876 7.035525,-15.71428 15.714286,-15.71428 8.67876,0 15.714286,7.03552 15.714286,15.71428 z"
       transform="matrix(0.56818182,0,0,0.56818182,526.35114,165.43561)" />
    <path
       sodipodi:type="arc"
       style="fill:#000000;fill-opacity:1;stroke:#000000;stroke-width:2.9920001;stroke-linejoin:miter;stroke-miterlimit:4;stroke-opacity:1;stroke-dasharray:none"
       id="path4927-31"
       sodipodi:cx="41.42857"
       sodipodi:cy="372.36218"
       sodipodi:rx="15.714286"
       sodipodi:ry="15.714286"
       d="m 57.142856,372.36218 c 0,8.67876 -7.035526,15.71429 -15.714286,15.71429 -8.678761,0 -15.714286,-7.03553 -15.714286,-15.71429 0,-8.67876 7.035525,-15.71428 15.714286,-15.71428 8.67876,0 15.714286,7.03552 15.714286,15.71428 z"
       transform="matrix(0.56818182,0,0,0.56818182,573.19182,165.43561)" />
    <path
       sodipodi:type="arc"
       style="fill:#000000;fill-opacity:1;stroke:#000000;stroke-width:2.9920001;stroke-linejoin:miter;stroke-miterlimit:4;stroke-opacity:1;stroke-dasharray:none"
       id="path4927-9"
       sodipodi:cx="41.42857"
       sodipodi:cy="372.36218"
       sodipodi:rx="15.714286"
       sodipodi:ry="15.714286"
       d="m 57.142856,372.36218 c 0,8.67876 -7.035526,15.71429 -15.714286,15.71429 -8.678761,0 -15.714286,-7.03553 -15.714286,-15.71429 0,-8.67876 7.035525,-15.71428 15.714286,-15.71428 8.67876,0 15.714286,7.03552 15.714286,15.71428 z"
       transform="matrix(0.56818182,0,0,0.56818182,620.03247,165.43561)" />
    <path
       sodipodi:type="arc"
       style="fill:#000000;fill-opacity:1;stroke:#000000;stroke-width:2.9920001;stroke-linejoin:miter;stroke-miterlimit:4;stroke-opacity:1;stroke-dasharray:none"
       id="path4927-42"
       sodipodi:cx="41.42857"
       sodipodi:cy="372.36218"
       sodipodi:rx="15.714286"
       sodipodi:ry="15.714286"
       d="m 57.142856,372.36218 c 0,8.67876 -7.035526,15.71429 -15.714286,15.71429 -8.678761,0 -15.714286,-7.03553 -15.714286,-15.71429 0,-8.67876 7.035525,-15.71428 15.714286,-15.71428 8.67876,0 15.714286,7.03552 15.714286,15.71428 z"
       transform="matrix(0.56818182,0,0,0.56818182,318.64512,228.6499)" />
    <path
       sodipodi:type="arc"
       style="fill:#000000;fill-opacity:1;stroke:#000000;stroke-width:2.9920001;stroke-linejoin:miter;stroke-miterlimit:4;stroke-opacity:1;stroke-dasharray:none"
       id="path4927-7-3"
       sodipodi:cx="41.42857"
       sodipodi:cy="372.36218"
       sodipodi:rx="15.714286"
       sodipodi:ry="15.714286"
       d="m 57.142856,372.36218 c 0,8.67876 -7.035526,15.71429 -15.714286,15.71429 -8.678761,0 -15.714286,-7.03553 -15.714286,-15.71429 0,-8.67876 7.035525,-15.71428 15.714286,-15.71428 8.67876,0 15.714286,7.03552 15.714286,15.71428 z"
       transform="matrix(0.56818182,0,0,0.56818182,365.48578,228.6499)" />
    <path
       sodipodi:type="arc"
       style="fill:#000000;fill-opacity:1;stroke:#000000;stroke-width:2.9920001;stroke-linejoin:miter;stroke-miterlimit:4;stroke-opacity:1;stroke-dasharray:none"
       id="path4927-3-0"
       sodipodi:cx="41.42857"
       sodipodi:cy="372.36218"
       sodipodi:rx="15.714286"
       sodipodi:ry="15.714286"
       d="m 57.142856,372.36218 c 0,8.67876 -7.035526,15.71429 -15.714286,15.71429 -8.678761,0 -15.714286,-7.03553 -15.714286,-15.71429 0,-8.67876 7.035525,-15.71428 15.714286,-15.71428 8.67876,0 15.714286,7.03552 15.714286,15.71428 z"
       transform="matrix(0.56818182,0,0,0.56818182,412.32643,228.6499)" />
    <path
       sodipodi:type="arc"
       style="fill:#000000;fill-opacity:1;stroke:#000000;stroke-width:2.9920001;stroke-linejoin:miter;stroke-miterlimit:4;stroke-opacity:1;stroke-dasharray:none"
       id="path4927-5-9"
       sodipodi:cx="41.42857"
       sodipodi:cy="372.36218"
       sodipodi:rx="15.714286"
       sodipodi:ry="15.714286"
       d="m 57.142856,372.36218 c 0,8.67876 -7.035526,15.71429 -15.714286,15.71429 -8.678761,0 -15.714286,-7.03553 -15.714286,-15.71429 0,-8.67876 7.035525,-15.71428 15.714286,-15.71428 8.67876,0 15.714286,7.03552 15.714286,15.71428 z"
       transform="matrix(0.56818182,0,0,0.56818182,459.16709,228.6499)" />
    <path
       sodipodi:type="arc"
       style="fill:#000000;fill-opacity:1;stroke:#000000;stroke-width:2.9920001;stroke-linejoin:miter;stroke-miterlimit:4;stroke-opacity:1;stroke-dasharray:none"
       id="path4927-4-5"
       sodipodi:cx="41.42857"
       sodipodi:cy="372.36218"
       sodipodi:rx="15.714286"
       sodipodi:ry="15.714286"
       d="m 57.142856,372.36218 c 0,8.67876 -7.035526,15.71429 -15.714286,15.71429 -8.678761,0 -15.714286,-7.03553 -15.714286,-15.71429 0,-8.67876 7.035525,-15.71428 15.714286,-15.71428 8.67876,0 15.714286,7.03552 15.714286,15.71428 z"
       transform="matrix(0.56818182,0,0,0.56818182,506.00775,228.6499)" />
    <path
       sodipodi:type="arc"
       style="fill:#000000;fill-opacity:1;stroke:#000000;stroke-width:2.9920001;stroke-linejoin:miter;stroke-miterlimit:4;stroke-opacity:1;stroke-dasharray:none"
       id="path4927-48-6"
       sodipodi:cx="41.42857"
       sodipodi:cy="372.36218"
       sodipodi:rx="15.714286"
       sodipodi:ry="15.714286"
       d="m 57.142856,372.36218 c 0,8.67876 -7.035526,15.71429 -15.714286,15.71429 -8.678761,0 -15.714286,-7.03553 -15.714286,-15.71429 0,-8.67876 7.035525,-15.71428 15.714286,-15.71428 8.67876,0 15.714286,7.03552 15.714286,15.71428 z"
       transform="matrix(0.56818182,0,0,0.56818182,552.8484,228.6499)" />
    <path
       style="fill:none;stroke:#000000;stroke-width:1px;stroke-linecap:butt;stroke-linejoin:miter;stroke-opacity:1"
       d="m 341.42857,440.21932 236.42857,0"
       id="path5066"
       inkscape:connector-curvature="0" />
    <path
       style="fill:none;stroke:#000000;stroke-width:1px;stroke-linecap:butt;stroke-linejoin:miter;stroke-opacity:1;marker-end:url(#Arrow1Lend)"
       d="m 317.14286,378.79075 23.57143,58.57143"
       id="path5068"
       inkscape:connector-curvature="0" />
    <path
       sodipodi:type="star"
       style="fill:#000000;fill-opacity:1;stroke:#000000;stroke-width:1.70000005;stroke-linejoin:miter;stroke-miterlimit:4;stroke-opacity:1;stroke-dasharray:none"
       id="path5762"
       sodipodi:sides="3"
       sodipodi:cx="122.14286"
       sodipodi:cy="350.21933"
       sodipodi:r1="12.857143"
       sodipodi:r2="6.4285722"
       sodipodi:arg1="1.5707963"
       sodipodi:arg2="2.6179939"
       inkscape:flatsided="false"
       inkscape:rounded="0"
       inkscape:randomized="0"
       d="m 122.14286,363.07647 -5.56731,-9.64285 -5.5673,-9.64286 11.13461,0 11.13461,0 -5.5673,9.64286 z"
       inkscape:transform-center-y="3.2142854"
       transform="translate(52.857143,-1.4285714)" />
    <text
       xml:space="preserve"
       style="font-size:24px;font-style:normal;font-variant:normal;font-weight:normal;font-stretch:normal;line-height:125%;letter-spacing:0px;word-spacing:0px;fill:#000000;fill-opacity:1;stroke:none;font-family:Liberation Serif;-inkscape-font-specification:Liberation Serif"
       x="158.57143"
       y="332.36218"
       id="text5764"
       sodipodi:linespacing="125%"><tspan
         sodipodi:role="line"
         id="tspan5766"
         x="158.57143"
         y="332.36218">1.0</tspan></text>
    <path
       sodipodi:type="star"
       style="fill:#000000;fill-opacity:1;stroke:#000000;stroke-width:1.70000005;stroke-linejoin:miter;stroke-miterlimit:4;stroke-opacity:1;stroke-dasharray:none"
       id="path5762-1"
       sodipodi:sides="3"
       sodipodi:cx="122.14286"
       sodipodi:cy="350.21933"
       sodipodi:r1="12.857143"
       sodipodi:r2="6.4285722"
       sodipodi:arg1="1.5707963"
       sodipodi:arg2="2.6179939"
       inkscape:flatsided="false"
       inkscape:rounded="0"
       inkscape:randomized="0"
       d="m 122.14286,363.07647 -5.56731,-9.64285 -5.5673,-9.64286 11.13461,0 11.13461,0 -5.5673,9.64286 z"
       inkscape:transform-center-y="3.2142854"
       transform="translate(192.97377,-1.3731081)" />
    <text
       xml:space="preserve"
       style="font-size:24px;font-style:normal;font-variant:normal;font-weight:normal;font-stretch:normal;line-height:125%;letter-spacing:0px;word-spacing:0px;fill:#000000;fill-opacity:1;stroke:none;font-family:Liberation Serif;-inkscape-font-specification:Liberation Serif"
       x="298.68805"
       y="332.41763"
       id="text5764-5"
       sodipodi:linespacing="125%"><tspan
         sodipodi:role="line"
         id="tspan5766-8"
         x="298.68805"
         y="332.41763">2.0</tspan></text>
    <g
       id="g5851"
       transform="translate(0,0.24267578)">
      <path
         transform="matrix(1,0,0,-1,362.97377,823.92269)"
         inkscape:transform-center-y="-3.2142863"
         d="m 122.14286,363.07647 -5.56731,-9.64285 -5.5673,-9.64286 11.13461,0 11.13461,0 -5.5673,9.64286 z"
         inkscape:randomized="0"
         inkscape:rounded="0"
         inkscape:flatsided="false"
         sodipodi:arg2="2.6179939"
         sodipodi:arg1="1.5707963"
         sodipodi:r2="6.4285722"
         sodipodi:r1="12.857143"
         sodipodi:cy="350.21933"
         sodipodi:cx="122.14286"
         sodipodi:sides="3"
         id="path5762-4"
         style="fill:#000000;fill-opacity:1;stroke:#000000;stroke-width:1.70000005;stroke-linejoin:miter;stroke-miterlimit:4;stroke-opacity:1;stroke-dasharray:none"
         sodipodi:type="star" />
      <text
         sodipodi:linespacing="125%"
         id="text5764-56"
         y="504.84622"
         x="470.68805"
         style="font-size:24px;font-style:normal;font-variant:normal;font-weight:normal;font-stretch:normal;line-height:125%;letter-spacing:0px;word-spacing:0px;fill:#000000;fill-opacity:1;stroke:none;font-family:Liberation Serif;-inkscape-font-specification:Liberation Serif"
         xml:space="preserve"><tspan
           y="504.84622"
           x="470.68805"
           id="tspan5766-1"
           sodipodi:role="line">2.1</tspan></text>
    </g>
    <path
       style="fill:none;stroke:#000000;stroke-width:1px;stroke-linecap:butt;stroke-linejoin:miter;stroke-opacity:1;marker-end:url(#Arrow1Lend)"
       d="m 459.64286,378.79076 23.57143,58.57143"
       id="path5068-3"
       inkscape:connector-curvature="0" />
    <g
       id="g5856"
       transform="translate(0,-0.242665)">
      <path
         transform="matrix(1,0,0,-1,455.19336,824.40802)"
         inkscape:transform-center-y="-3.2142863"
         d="m 122.14286,363.07647 -5.56731,-9.64285 -5.5673,-9.64286 11.13461,0 11.13461,0 -5.5673,9.64286 z"
         inkscape:randomized="0"
         inkscape:rounded="0"
         inkscape:flatsided="false"
         sodipodi:arg2="2.6179939"
         sodipodi:arg1="1.5707963"
         sodipodi:r2="6.4285722"
         sodipodi:r1="12.857143"
         sodipodi:cy="350.21933"
         sodipodi:cx="122.14286"
         sodipodi:sides="3"
         id="path5762-4-8"
         style="fill:#000000;fill-opacity:1;stroke:#000000;stroke-width:1.70000005;stroke-linejoin:miter;stroke-miterlimit:4;stroke-opacity:1;stroke-dasharray:none"
         sodipodi:type="star" />
      <text
         sodipodi:linespacing="125%"
         id="text5764-56-2"
         y="505.33157"
         x="562.90759"
         style="font-size:24px;font-style:normal;font-variant:normal;font-weight:normal;font-stretch:normal;line-height:125%;letter-spacing:0px;word-spacing:0px;fill:#000000;fill-opacity:1;stroke:none;font-family:Liberation Serif;-inkscape-font-specification:Liberation Serif"
         xml:space="preserve"><tspan
           y="505.33157"
           x="562.90759"
           id="tspan5766-1-2"
           sodipodi:role="line">2.2</tspan></text>
    </g>
  </g>
</svg>
